<svg width="20" height="22" viewBox="0 0 20 22" fill="none" xmlns="http://www.w3.org/2000/svg">
<path fill-rule="evenodd" clip-rule="evenodd" d="M5.05033 2.05029C6.36308 0.737532 8.14356 3.43323e-05 10.0001 3.43323e-05C11.8566 3.43323e-05 13.6371 0.737532 14.9498 2.05029C16.2626 3.36304 17.0001 5.14352 17.0001 7.00003C17.0001 10.3527 17.7171 12.4347 18.378 13.6462C18.7098 14.2545 19.0329 14.6535 19.2573 14.8904C19.3698 15.0091 19.4581 15.0879 19.5114 15.1322C19.538 15.1544 19.5558 15.168 19.5635 15.1737C19.5647 15.1746 19.5657 15.1753 19.5664 15.1758C19.9249 15.4221 20.0835 15.8725 19.9572 16.2898C19.8295 16.7116 19.4407 17 19.0001 17H1.00008C0.559411 17 0.170684 16.7116 0.0429858 16.2898C-0.0833568 15.8725 0.0752824 15.4221 0.433767 15.1758C0.434469 15.1753 0.435423 15.1746 0.436625 15.1737C0.444324 15.168 0.462178 15.1544 0.4888 15.1322C0.542016 15.0879 0.6304 15.0091 0.742875 14.8904C0.967303 14.6535 1.29039 14.2545 1.62218 13.6462C2.28301 12.4347 3.00008 10.3527 3.00008 7.00003C3.00008 5.14352 3.73758 3.36304 5.05033 2.05029ZM0.443875 15.169C0.443954 15.1689 0.444033 15.1689 0.444112 15.1688C0.444107 15.1688 0.444103 15.1688 0.444099 15.1688L0.443875 15.169ZM3.1494 15H16.8508C16.7747 14.8754 16.6983 14.7434 16.6222 14.6039C15.783 13.0654 15.0001 10.6474 15.0001 7.00003C15.0001 5.67395 14.4733 4.40218 13.5356 3.4645C12.5979 2.52682 11.3262 2.00003 10.0001 2.00003C8.674 2.00003 7.40223 2.52682 6.46454 3.4645C5.52686 4.40218 5.00008 5.67395 5.00008 7.00003C5.00008 10.6474 4.21714 13.0654 3.37797 14.6039C3.30187 14.7434 3.22549 14.8754 3.1494 15Z" fill="#1C1F37"/>
<path fill-rule="evenodd" clip-rule="evenodd" d="M7.76792 19.135C8.24565 18.8579 8.85758 19.0205 9.1347 19.4982C9.2226 19.6498 9.34878 19.7755 9.50058 19.863C9.65239 19.9504 9.82451 19.9965 9.9997 19.9965C10.1749 19.9965 10.347 19.9504 10.4988 19.863C10.6506 19.7755 10.7768 19.6498 10.8647 19.4982C11.1418 19.0205 11.7537 18.8579 12.2315 19.135C12.7092 19.4121 12.8718 20.024 12.5947 20.5018C12.331 20.9564 11.9525 21.3337 11.497 21.5961C11.0416 21.8584 10.5253 21.9965 9.9997 21.9965C9.47413 21.9965 8.95778 21.8584 8.50236 21.5961C8.04693 21.3337 7.66841 20.9564 7.4047 20.5018C7.12758 20.024 7.2902 19.4121 7.76792 19.135Z" fill="#1C1F37"/>
</svg>
