<svg width="24" height="24" viewBox="0 0 24 24" fill="none" xmlns="http://www.w3.org/2000/svg">
<g clip-path="url(#clip0_1_101)">
<path d="M15 15H16V17H15C13.642 17 12.388 16.32 11.646 15.181L13.322 14.089C13.694 14.66 14.321 15 15 15ZM23.011 16.685C22.152 15.614 20.873 15 19.502 15H18V17H19.501C20.262 17 20.973 17.341 21.451 17.937L23.011 16.685ZM15 24H19V22H15V24ZM23.989 19.191L21.994 19.325C21.998 19.383 22 19.441 22 19.5C22 20.478 21.425 21.371 20.535 21.776L21.364 23.596C22.965 22.866 24 21.258 24 19.499C24 19.395 23.996 19.293 23.989 19.191ZM14.073 9.973C13.862 9.762 13.673 9.539 13.495 9.31C13.031 9.499 12.604 9.757 12.239 10.105C11.59 10.725 11.164 11.553 11.039 12.438L13.019 12.716C13.081 12.275 13.294 11.862 13.619 11.552C13.825 11.356 14.064 11.209 14.331 11.114L14.333 11.111V11.113C14.545 11.038 14.77 11 14.999 11H15.123L14.073 9.973ZM15.471 8.543C13.514 6.585 13.514 3.414 15.463 1.464C16.408 0.52 17.664 0 18.999 0C20.334 0 21.59 0.52 22.535 1.464C24.484 3.414 24.484 6.586 22.535 8.536L18.999 11.994L15.471 8.543ZM16.999 5C16.999 6.105 17.894 7 18.999 7C20.104 7 20.999 6.105 20.999 5C20.999 3.895 20.104 3 18.999 3C17.894 3 16.999 3.895 16.999 5ZM8.534 20.536L4.999 23.994L1.471 20.544C-0.486002 18.586 -0.486001 15.415 1.463 13.465C2.408 12.521 3.664 12.001 4.999 12.001C6.334 12.001 7.59 12.521 8.534 13.465C10.484 15.415 10.484 18.587 8.534 20.536ZM6.999 17C6.999 15.895 6.104 15 4.999 15C3.894 15 2.999 15.895 2.999 17C2.999 18.105 3.894 19 4.999 19C6.104 19 6.999 18.105 6.999 17ZM9.897 22L7.852 24H12.998V22H9.896H9.897Z" fill="#6B7280"/>
</g>
<defs>
<clipPath id="clip0_1_101">
<rect width="24" height="24" fill="white"/>
</clipPath>
</defs>
</svg>
