<svg width="24" height="20" viewBox="0 0 24 20" fill="none" xmlns="http://www.w3.org/2000/svg">
<path d="M0 1.57895C0 0.705263 0.67 0 1.5 0H17.5C18.33 0 19 0.705263 19 1.57895C19 2.45263 18.33 3.15789 17.5 3.15789H1.5C0.67 3.15789 0 2.45263 0 1.57895ZM17.5 16.8421H1.5C0.67 16.8421 0 17.5474 0 18.4211C0 19.2947 0.67 20 1.5 20H17.5C18.33 20 19 19.2947 19 18.4211C19 17.5474 18.33 16.8421 17.5 16.8421ZM22.5 8.42105H6.5C5.67 8.42105 5 9.12632 5 10C5 10.8737 5.67 11.5789 6.5 11.5789H22.5C23.33 11.5789 24 10.8737 24 10C24 9.12632 23.33 8.42105 22.5 8.42105Z" fill="#1C1F37"/>
</svg>
