<svg width="20" height="20" viewBox="0 0 20 20" fill="none" xmlns="http://www.w3.org/2000/svg">
<rect width="20" height="20" fill="white"/>
<path d="M5.65149 13.4285C4.78674 13.4285 3.92349 13.1595 3.19299 12.6315L1.63674 11.5069C1.30074 11.2646 1.07424 10.8882 1.01574 10.476C0.960242 10.0882 1.05624 9.71109 1.28649 9.41242C1.67499 8.90803 2.32824 8.71527 2.91324 8.93241L5.34849 9.84061L16.3397 4.46075C17.2787 4.0196 18.3925 4.43789 18.826 5.39028C19.2595 6.34115 18.8545 7.48173 17.9237 7.93355L7.46199 13.0132C6.88824 13.2913 6.27024 13.4285 5.65149 13.4285ZM19 17.238C19 16.8167 18.664 16.4761 18.25 16.4761H1.74999C1.33599 16.4761 0.999992 16.8167 0.999992 17.238C0.999992 17.6594 1.33599 17.9999 1.74999 17.9999H18.25C18.664 17.9999 19 17.6594 19 17.238ZM7.46049 7.11601L11.5247 5.12666L7.13799 2.37463C6.58749 1.95939 5.85774 1.8832 5.23149 2.17653L4.64574 2.45616C4.30224 2.61997 4.06524 2.94607 4.01124 3.32778C3.95724 3.71026 4.09449 4.09046 4.37874 4.34646L7.45974 7.11678L7.46049 7.11601Z" fill="#6B7280"/>
</svg>
