<svg width="20" height="20" viewBox="0 0 20 20" fill="none" xmlns="http://www.w3.org/2000/svg">
<path d="M5.16833 13.8571C4.2075 13.8571 3.24833 13.5545 2.43667 12.9605L0.7075 11.6954C0.334167 11.4228 0.0825 10.9993 0.0175 10.5356C-0.0441667 10.0993 0.0625 9.67504 0.318333 9.33904C0.75 8.77161 1.47583 8.55475 2.12583 8.79904L4.83167 9.82076L17.0442 3.76841C18.0875 3.27212 19.325 3.7427 19.8067 4.81414C20.2883 5.88386 19.8383 7.16702 18.8042 7.67531L7.18 13.3899C6.5425 13.7028 5.85583 13.8571 5.16833 13.8571ZM20 18.1428C20 17.6688 19.6267 17.2857 19.1667 17.2857H0.833333C0.373333 17.2857 0 17.6688 0 18.1428C0 18.6169 0.373333 19 0.833333 19H19.1667C19.6267 19 20 18.6169 20 18.1428ZM7.17833 6.75558L11.6942 4.51756L6.82 1.42153C6.20833 0.954381 5.3975 0.868666 4.70167 1.19867L4.05083 1.51324C3.66917 1.69753 3.40583 2.06439 3.34583 2.49383C3.28583 2.92412 3.43833 3.35183 3.75417 3.63984L7.1775 6.75644L7.17833 6.75558Z" fill="#6B7280"/>
</svg>
