<svg width="20" height="20" viewBox="0 0 20 20" fill="none" xmlns="http://www.w3.org/2000/svg">
<g clip-path="url(#clip0_1_40)">
<path d="M15.8333 2.5H4.16666C3.062 2.50132 2.00296 2.94073 1.22184 3.72185C0.440727 4.50296 0.00131559 5.562 -7.62939e-06 6.66667H20C19.9987 5.562 19.5593 4.50296 18.7781 3.72185C17.997 2.94073 16.938 2.50132 15.8333 2.5Z" fill="#6B7280"/>
<path d="M-7.62939e-06 13.3333C0.00131559 14.438 0.440727 15.497 1.22184 16.2781C2.00296 17.0592 3.062 17.4987 4.16666 17.5H15.8333C16.938 17.4987 17.997 17.0592 18.7781 16.2781C19.5593 15.497 19.9987 14.438 20 13.3333V8.33331H-7.62939e-06V13.3333ZM5.83333 12.9166C5.83333 13.1639 5.76001 13.4055 5.62266 13.6111C5.48531 13.8167 5.29009 13.9769 5.06168 14.0715C4.83327 14.1661 4.58194 14.1909 4.33946 14.1426C4.09699 14.0944 3.87426 13.9753 3.69944 13.8005C3.52463 13.6257 3.40558 13.403 3.35734 13.1605C3.30911 12.918 3.33387 12.6667 3.42848 12.4383C3.52309 12.2099 3.6833 12.0147 3.88886 11.8773C4.09442 11.74 4.3361 11.6666 4.58333 11.6666C4.91485 11.6666 5.23279 11.7983 5.46721 12.0328C5.70163 12.2672 5.83333 12.5851 5.83333 12.9166Z" fill="#6B7280"/>
</g>
<defs>
<clipPath id="clip0_1_40">
<rect width="20" height="20" fill="white"/>
</clipPath>
</defs>
</svg>
