<svg width="20" height="20" viewBox="0 0 20 20" fill="none" xmlns="http://www.w3.org/2000/svg">
<path d="M5.125 16.75C4.62772 16.75 4.15081 16.5525 3.79917 16.2008C3.44754 15.8492 3.25 15.3723 3.25 14.875V2.125C3.25 1.82663 3.13147 1.54048 2.9205 1.3295C2.70952 1.11853 2.42337 1 2.125 1C1.82663 1 1.54048 1.11853 1.3295 1.3295C1.11853 1.54048 1 1.82663 1 2.125L1 14.875C1 15.969 1.4346 17.0182 2.20818 17.7918C2.98177 18.5654 4.03098 19 5.125 19H17.875C18.1734 19 18.4595 18.8815 18.6705 18.6705C18.8815 18.4595 19 18.1734 19 17.875C19 17.5766 18.8815 17.2905 18.6705 17.0795C18.4595 16.8685 18.1734 16.75 17.875 16.75H5.125Z" fill="#6B7280"/>
<path d="M15.625 14.5C15.9234 14.5 16.2095 14.3815 16.4205 14.1705C16.6315 13.9595 16.75 13.6734 16.75 13.375V8.875C16.75 8.57663 16.6315 8.29048 16.4205 8.0795C16.2095 7.86853 15.9234 7.75 15.625 7.75C15.3266 7.75 15.0405 7.86853 14.8295 8.0795C14.6185 8.29048 14.5 8.57663 14.5 8.875V13.375C14.5 13.6734 14.6185 13.9595 14.8295 14.1705C15.0405 14.3815 15.3266 14.5 15.625 14.5Z" fill="#6B7280"/>
<path d="M6.625 14.5C6.92337 14.5 7.20952 14.3815 7.4205 14.1705C7.63147 13.9595 7.75 13.6734 7.75 13.375V8.875C7.75 8.57663 7.63147 8.29048 7.4205 8.0795C7.20952 7.86853 6.92337 7.75 6.625 7.75C6.32663 7.75 6.04048 7.86853 5.8295 8.0795C5.61853 8.29048 5.5 8.57663 5.5 8.875V13.375C5.5 13.6734 5.61853 13.9595 5.8295 14.1705C6.04048 14.3815 6.32663 14.5 6.625 14.5Z" fill="#6B7280"/>
<path d="M11.125 14.5C11.4234 14.5 11.7095 14.3815 11.9205 14.1705C12.1315 13.9595 12.25 13.6734 12.25 13.375V5.125C12.25 4.82663 12.1315 4.54048 11.9205 4.3295C11.7095 4.11853 11.4234 4 11.125 4C10.8266 4 10.5405 4.11853 10.3295 4.3295C10.1185 4.54048 10 4.82663 10 5.125V13.375C10 13.6734 10.1185 13.9595 10.3295 14.1705C10.5405 14.3815 10.8266 14.5 11.125 14.5Z" fill="#6B7280"/>
</svg>
