<svg width="20" height="20" viewBox="0 0 20 20" fill="none" xmlns="http://www.w3.org/2000/svg">
<path d="M1.33918 15C2.02848 16.1963 3.55711 16.6073 4.75344 15.918C4.75426 15.9176 4.75504 15.9171 4.75586 15.9166L5.12668 15.7025C5.82668 16.3014 6.63129 16.7658 7.5 17.0725V17.5C7.5 18.8807 8.6193 20 10 20C11.3807 20 12.5 18.8807 12.5 17.5V17.0725C13.3688 16.7654 14.1735 16.3004 14.8733 15.7008L15.2458 15.9158C16.4424 16.6062 17.9722 16.1958 18.6625 14.9991C19.3529 13.8025 18.9425 12.2728 17.7458 11.5825L17.3758 11.3691C17.5424 10.4629 17.5424 9.53379 17.3758 8.62746L17.7458 8.41414C18.9424 7.72379 19.3529 6.1941 18.6625 4.99746C17.9722 3.80086 16.4425 3.39043 15.2458 4.08078L14.875 4.29496C14.1743 3.6968 13.3691 3.2332 12.5 2.9275V2.5C12.5 1.1193 11.3807 0 10 0C8.6193 0 7.5 1.1193 7.5 2.5V2.9275C6.63117 3.23465 5.82652 3.69965 5.12668 4.29918L4.75418 4.08336C3.55754 3.39297 2.02785 3.8034 1.3375 5C0.64715 6.1966 1.05754 7.72633 2.25418 8.41668L2.62418 8.63C2.45762 9.53629 2.45762 10.4654 2.62418 11.3717L2.25418 11.585C1.06086 12.2772 0.651798 13.8039 1.33918 15ZM10 6.66668C11.8409 6.66668 13.3333 8.15906 13.3333 10C13.3333 11.8409 11.8409 13.3333 10 13.3333C8.15906 13.3333 6.66668 11.8409 6.66668 10C6.66668 8.15906 8.15906 6.66668 10 6.66668Z" fill="#6B7280"/>
</svg>
