<svg width="36" height="36" viewBox="0 0 36 36" fill="none" xmlns="http://www.w3.org/2000/svg">
<path d="M36 20.25C36 20.7424 35.903 21.2301 35.7146 21.685C35.5262 22.14 35.2501 22.5534 34.902 22.9016C34.5538 23.2498 34.1406 23.5261 33.6857 23.7145C33.2309 23.903 32.7434 24 32.2511 24H26.1988L19.8616 33.7304C19.4716 34.4225 18.9038 34.9978 18.2171 35.3968C17.5303 35.7957 16.7494 36.004 15.9552 35.9999C15.318 36.0001 14.6902 35.8458 14.1257 35.5502C13.5611 35.2545 13.0766 34.8264 12.7137 34.3025C12.3507 33.7786 12.1202 33.1745 12.0417 32.5419C11.9633 31.9094 12.0393 31.2672 12.2633 30.6705L15.0345 24H9.00769C7.9503 24 6.91168 23.7205 5.99708 23.1897C5.08248 22.6589 4.3244 21.8957 3.79967 20.9775L0.310168 15.24C0.161066 14.9923 0.0630765 14.7173 0.0219831 14.4311C-0.0191102 14.145 -0.00247449 13.8535 0.0709084 13.5738C0.144291 13.2942 0.272934 13.0321 0.449244 12.803C0.625553 12.5739 0.845957 12.3825 1.09744 12.24C1.49653 12.0307 1.95195 11.9542 2.39749 12.0217C2.84303 12.0891 3.25544 12.297 3.57474 12.615L5.69963 14.742C6.82427 15.8673 8.34971 16.4997 9.94042 16.5H32.2511C32.7434 16.5 33.2309 16.597 33.6857 16.7854C34.1406 16.9739 34.5538 17.2501 34.902 17.5983C35.2501 17.9466 35.5262 18.36 35.7146 18.8149C35.903 19.2699 36 19.7575 36 20.25ZM26.5992 13.5L19.8511 2.26953C19.4616 1.57805 18.8946 1.00313 18.2086 0.60416C17.5227 0.205188 16.7427 -0.00336562 15.9492 4.10762e-05C15.3121 0.000214608 14.6845 0.154776 14.1202 0.450501C13.5558 0.746226 13.0715 1.17431 12.7086 1.69813C12.3457 2.22194 12.1151 2.8259 12.0365 3.45831C11.9579 4.09073 12.0337 4.73278 12.2573 5.32953L15.4334 13.5H26.5992Z" fill="#0B98D3"/>
</svg>
