<svg width="32" height="36" viewBox="0 0 32 36" fill="none" xmlns="http://www.w3.org/2000/svg">
<path fill-rule="evenodd" clip-rule="evenodd" d="M26.6667 27H5.33333V23.4H26.6667V27ZM26.6667 19.8H5.33333V16.2H26.6667V19.8ZM26.6667 12.6H5.33333V9H26.6667V12.6ZM0 36L2.66667 33.3L5.33333 36L8 33.3L10.6667 36L13.3333 33.3L16 36L18.6667 33.3L21.3333 36L24 33.3L26.6667 36L29.3333 33.3L32 36V0L29.3333 2.7L26.6667 0L24 2.7L21.3333 0L18.6667 2.7L16 0L13.3333 2.7L10.6667 0L8 2.7L5.33333 0L2.66667 2.7L0 0V36Z" fill="#FD5E65"/>
</svg>
