<svg width="36" height="36" viewBox="0 0 36 36" fill="none" xmlns="http://www.w3.org/2000/svg">
<path d="M18 0C8.07188 0 0 8.07187 0 18C0 27.9281 8.07188 36 18 36C27.9281 36 36 27.9281 36 18C36 8.07187 27.9281 0 18 0ZM23.4094 23.6156C23.0156 24.0094 22.5094 24.2063 21.9938 24.2063C21.4781 24.2063 20.9719 24.0094 20.5781 23.6156L16.575 19.6125C16.2 19.2375 15.9844 18.7312 15.9844 18.1969V10.2C15.9844 9.09375 16.8844 8.20313 17.9812 8.20313C19.0781 8.20313 19.9781 9.10313 19.9781 10.2V17.3719L23.3906 20.7844C24.1969 21.5719 24.1969 22.8375 23.4094 23.6156Z" fill="#FF7502"/>
</svg>
