<svg width="20" height="36" viewBox="0 0 20 36" fill="none" xmlns="http://www.w3.org/2000/svg">
<path d="M20 23.1429C20 27.396 16.6354 30.8571 12.5009 30.8571V33.4286C12.5009 34.8506 11.3836 36 10.0012 36C8.61892 36 7.50156 34.8506 7.50156 33.4286V30.8571H6.83165C4.16448 30.8571 1.67479 29.3811 0.337457 27.0026C-0.354957 25.7709 0.0549938 24.1997 1.24734 23.49C2.4447 22.7726 3.9745 23.1994 4.66192 24.426C5.10936 25.2231 5.93926 25.7143 6.82915 25.7143H12.4984C13.8783 25.7143 14.9981 24.5623 14.9981 23.1429C14.9981 22.1709 14.3207 21.348 13.3883 21.1886L5.78678 19.8849C2.4322 19.3114 0 16.3543 0 12.8571C0 8.604 3.36458 5.14286 7.49906 5.14286V2.57143C7.49906 1.152 8.61642 0 9.99875 0C11.3811 0 12.4984 1.152 12.4984 2.57143V5.14286H13.1684C15.8355 5.14286 18.3252 6.62143 19.6625 9C20.355 10.2291 19.945 11.8003 18.7527 12.5126C17.5528 13.2249 16.0255 12.8031 15.3381 11.574C14.8906 10.7794 14.0607 10.2883 13.1709 10.2883H7.50156C6.12173 10.2883 5.00187 11.4429 5.00187 12.8597C5.00187 13.8317 5.67929 14.6546 6.61167 14.814L14.2132 16.1177C17.5678 16.6911 20 19.6483 20 23.1454V23.1429Z" fill="#41A34C"/>
</svg>
